# xmcd
#
# Track frame offsets:
#	150
#	15974
#	27987
#	41617
#	54149
#	68562
#	83289
#	96919
#	108511
#	120887
#
# Disc length: 1789 seconds
# Revision: 0
# Processed by: cddbd v1.5.2PL0 Copyright (c) Steve Scherf et al.
# Submitted via: dBpowerAMP V12.0
#
DISCID=6306fb0a
DTITLE=Norman Wade - Close Every Honky Tonk
DYEAR=1900
DGENRE=Cajun
TTITLE0=Close Every Honky Tonk
TTITLE1=I'd Rather Be Needed Than Be Loved
TTITLE2=(You Brought) The Cheating Out Of Me
TTITLE3=Writing On The Wall
TTITLE4=This Ol' Country Boy Gets Right
TTITLE5=Lonely Man Cries
TTITLE6=Half The Man
TTITLE7=I'll Cry Tomorrow Again
TTITLE8=Run Johnny Run
TTITLE9=Misery Known As Heartache
EXTD=
EXTT0=
EXTT1=
EXTT2=
EXTT3=
EXTT4=
EXTT5=
EXTT6=
EXTT7=
EXTT8=
EXTT9=
PLAYORDER=
